<svg width="784" height="437" viewBox="0 0 784 437" fill="none" xmlns="http://www.w3.org/2000/svg">
<rect width="784" height="437" rx="12" fill="white"/>
<rect y="48" width="784" height="1" fill="#EFF2F5"/>
<path d="M19.616 18.832V26.672C19.616 27.76 19.3013 28.608 18.672 29.216C18.0427 29.8133 17.2 30.112 16.144 30.112C15.0773 30.112 14.2133 29.8027 13.552 29.184C12.9013 28.5653 12.576 27.7013 12.576 26.592H14.816C14.8267 27.072 14.9387 27.4453 15.152 27.712C15.376 27.9787 15.696 28.112 16.112 28.112C16.5173 28.112 16.8267 27.984 17.04 27.728C17.2533 27.472 17.36 27.12 17.36 26.672V18.832H19.616ZM30.597 21.136V30H28.341V28.88C28.053 29.264 27.6743 29.568 27.205 29.792C26.7463 30.0053 26.245 30.112 25.701 30.112C25.0077 30.112 24.3943 29.968 23.861 29.68C23.3277 29.3813 22.9063 28.9493 22.597 28.384C22.2983 27.808 22.149 27.1253 22.149 26.336V21.136H24.389V26.016C24.389 26.72 24.565 27.264 24.917 27.648C25.269 28.0213 25.749 28.208 26.357 28.208C26.9757 28.208 27.461 28.0213 27.813 27.648C28.165 27.264 28.341 26.72 28.341 26.016V21.136H30.597ZM43.8151 21.008C44.9031 21.008 45.7778 21.344 46.4391 22.016C47.1111 22.6773 47.4471 23.6053 47.4471 24.8V30H45.2071V25.104C45.2071 24.4107 45.0311 23.8827 44.6791 23.52C44.3271 23.1467 43.8471 22.96 43.2391 22.96C42.6311 22.96 42.1458 23.1467 41.7831 23.52C41.4311 23.8827 41.2551 24.4107 41.2551 25.104V30H39.0151V25.104C39.0151 24.4107 38.8391 23.8827 38.4871 23.52C38.1351 23.1467 37.6551 22.96 37.0471 22.96C36.4285 22.96 35.9378 23.1467 35.5751 23.52C35.2231 23.8827 35.0471 24.4107 35.0471 25.104V30H32.8071V21.136H35.0471V22.208C35.3351 21.8347 35.7031 21.5413 36.1511 21.328C36.6098 21.1147 37.1111 21.008 37.6551 21.008C38.3485 21.008 38.9671 21.1573 39.5111 21.456C40.0551 21.744 40.4765 22.16 40.7751 22.704C41.0631 22.192 41.4791 21.7813 42.0231 21.472C42.5778 21.1627 43.1751 21.008 43.8151 21.008ZM51.8128 18.16V30H49.5728V18.16H51.8128ZM53.4499 25.536C53.4499 24.64 53.6259 23.8453 53.9779 23.152C54.3405 22.4587 54.8259 21.9253 55.4339 21.552C56.0525 21.1787 56.7405 20.992 57.4979 20.992C58.1592 20.992 58.7352 21.1253 59.2259 21.392C59.7272 21.6587 60.1272 21.9947 60.4259 22.4V21.136H62.6819V30H60.4259V28.704C60.1379 29.12 59.7379 29.4667 59.2259 29.744C58.7245 30.0107 58.1432 30.144 57.4819 30.144C56.7352 30.144 56.0525 29.952 55.4339 29.568C54.8259 29.184 54.3405 28.6453 53.9779 27.952C53.6259 27.248 53.4499 26.4427 53.4499 25.536ZM60.4259 25.568C60.4259 25.024 60.3192 24.56 60.1059 24.176C59.8925 23.7813 59.6045 23.4827 59.2419 23.28C58.8792 23.0667 58.4899 22.96 58.0739 22.96C57.6579 22.96 57.2739 23.0613 56.9219 23.264C56.5699 23.4667 56.2819 23.7653 56.0579 24.16C55.8445 24.544 55.7379 25.0027 55.7379 25.536C55.7379 26.0693 55.8445 26.5387 56.0579 26.944C56.2819 27.3387 56.5699 27.6427 56.9219 27.856C57.2845 28.0693 57.6685 28.176 58.0739 28.176C58.4899 28.176 58.8792 28.0747 59.2419 27.872C59.6045 27.6587 59.8925 27.36 60.1059 26.976C60.3192 26.5813 60.4259 26.112 60.4259 25.568ZM69.8616 21.008C70.5336 21.008 71.131 21.1573 71.6536 21.456C72.1763 21.744 72.5816 22.176 72.8696 22.752C73.1683 23.3173 73.3176 24 73.3176 24.8V30H71.0776V25.104C71.0776 24.4 70.9016 23.8613 70.5496 23.488C70.1976 23.104 69.7176 22.912 69.1096 22.912C68.491 22.912 68.0003 23.104 67.6376 23.488C67.2856 23.8613 67.1096 24.4 67.1096 25.104V30H64.8696V18.16H67.1096V22.24C67.3976 21.856 67.7816 21.5573 68.2616 21.344C68.7416 21.12 69.275 21.008 69.8616 21.008ZM84.4443 30.112C83.3989 30.112 82.4389 29.8667 81.5643 29.376C80.6896 28.8853 79.9963 28.208 79.4843 27.344C78.9723 26.4693 78.7163 25.4827 78.7163 24.384C78.7163 23.296 78.9723 22.32 79.4843 21.456C79.9963 20.5813 80.6896 19.8987 81.5643 19.408C82.4389 18.9173 83.3989 18.672 84.4443 18.672C85.5003 18.672 86.4603 18.9173 87.3243 19.408C88.1989 19.8987 88.8869 20.5813 89.3883 21.456C89.9003 22.32 90.1563 23.296 90.1563 24.384C90.1563 25.4827 89.9003 26.4693 89.3883 27.344C88.8869 28.208 88.1989 28.8853 87.3243 29.376C86.4496 29.8667 85.4896 30.112 84.4443 30.112ZM84.4443 28.112C85.1163 28.112 85.7083 27.9627 86.2203 27.664C86.7323 27.3547 87.1323 26.9173 87.4203 26.352C87.7083 25.7867 87.8523 25.1307 87.8523 24.384C87.8523 23.6373 87.7083 22.9867 87.4203 22.432C87.1323 21.8667 86.7323 21.4347 86.2203 21.136C85.7083 20.8373 85.1163 20.688 84.4443 20.688C83.7723 20.688 83.1749 20.8373 82.6523 21.136C82.1403 21.4347 81.7403 21.8667 81.4523 22.432C81.1643 22.9867 81.0203 23.6373 81.0203 24.384C81.0203 25.1307 81.1643 25.7867 81.4523 26.352C81.7403 26.9173 82.1403 27.3547 82.6523 27.664C83.1749 27.9627 83.7723 28.112 84.4443 28.112ZM100.191 21.136V30H97.9348V28.88C97.6468 29.264 97.2681 29.568 96.7988 29.792C96.3401 30.0053 95.8388 30.112 95.2948 30.112C94.6014 30.112 93.9881 29.968 93.4548 29.68C92.9214 29.3813 92.5001 28.9493 92.1908 28.384C91.8921 27.808 91.7428 27.1253 91.7428 26.336V21.136H93.9828V26.016C93.9828 26.72 94.1588 27.264 94.5108 27.648C94.8628 28.0213 95.3428 28.208 95.9508 28.208C96.5694 28.208 97.0548 28.0213 97.4068 27.648C97.7588 27.264 97.9348 26.72 97.9348 26.016V21.136H100.191ZM105.009 22.976V27.264C105.009 27.5627 105.078 27.7813 105.217 27.92C105.366 28.048 105.612 28.112 105.953 28.112H106.993V30H105.585C103.697 30 102.753 29.0827 102.753 27.248V22.976H101.697V21.136H102.753V18.944H105.009V21.136H106.993V22.976H105.009ZM110.844 18.16V30H108.604V18.16H110.844ZM121.297 25.376C121.297 25.696 121.276 25.984 121.233 26.24H114.753C114.806 26.88 115.03 27.3813 115.425 27.744C115.82 28.1067 116.305 28.288 116.881 28.288C117.713 28.288 118.305 27.9307 118.657 27.216H121.073C120.817 28.0693 120.326 28.7733 119.601 29.328C118.876 29.872 117.985 30.144 116.929 30.144C116.076 30.144 115.308 29.9573 114.625 29.584C113.953 29.2 113.425 28.6613 113.041 27.968C112.668 27.2747 112.481 26.4747 112.481 25.568C112.481 24.6507 112.668 23.8453 113.041 23.152C113.414 22.4587 113.937 21.9253 114.609 21.552C115.281 21.1787 116.054 20.992 116.929 20.992C117.772 20.992 118.524 21.1733 119.185 21.536C119.857 21.8987 120.374 22.416 120.737 23.088C121.11 23.7493 121.297 24.512 121.297 25.376ZM118.977 24.736C118.966 24.16 118.758 23.7013 118.353 23.36C117.948 23.008 117.452 22.832 116.865 22.832C116.31 22.832 115.841 23.0027 115.457 23.344C115.084 23.6747 114.854 24.1387 114.769 24.736H118.977ZM125.54 22.976V27.264C125.54 27.5627 125.609 27.7813 125.748 27.92C125.897 28.048 126.143 28.112 126.484 28.112H127.524V30H126.116C124.228 30 123.284 29.0827 123.284 27.248V22.976H122.228V21.136H123.284V18.944H125.54V21.136H127.524V22.976H125.54Z" fill="#464E5F"/>
<path d="M29.578 76.818L20.534 98H15.706L24.818 77.362H13.19V73.282H29.578V76.818ZM32.497 79.742C32.6103 77.4753 33.4036 75.73 34.877 74.506C36.373 73.2593 38.3336 72.636 40.759 72.636C42.4136 72.636 43.8303 72.9307 45.009 73.52C46.1876 74.0867 47.0716 74.8687 47.661 75.866C48.273 76.8407 48.579 77.9513 48.579 79.198C48.579 80.626 48.205 81.8387 47.457 82.836C46.7316 83.8107 45.859 84.468 44.839 84.808V84.944C46.1536 85.352 47.1736 86.0773 47.899 87.12C48.647 88.1627 49.021 89.5 49.021 91.132C49.021 92.492 48.7036 93.7047 48.069 94.77C47.457 95.8353 46.539 96.674 45.315 97.286C44.1136 97.8753 42.663 98.17 40.963 98.17C38.4016 98.17 36.3163 97.524 34.707 96.232C33.0976 94.94 32.2476 93.036 32.157 90.52H36.781C36.8263 91.6307 37.2003 92.526 37.903 93.206C38.6283 93.8633 39.6143 94.192 40.861 94.192C42.017 94.192 42.901 93.8747 43.513 93.24C44.1476 92.5827 44.465 91.744 44.465 90.724C44.465 89.364 44.0343 88.3893 43.173 87.8C42.3116 87.2107 40.9743 86.916 39.161 86.916H38.175V83.006H39.161C42.3796 83.006 43.989 81.9293 43.989 79.776C43.989 78.8013 43.6943 78.042 43.105 77.498C42.5383 76.954 41.711 76.682 40.623 76.682C39.5576 76.682 38.7303 76.9767 38.141 77.566C37.5743 78.1327 37.2456 78.858 37.155 79.742H32.497Z" fill="#171C32"/>
<rect x="67" y="73.5" width="64" height="26" rx="8" fill="#E8FFF3"/>
<path d="M82.678 86.744H80.254V89.228H78.982V86.744H76.558V85.592H78.982V83.108H80.254V85.592H82.678V86.744ZM85.3764 88.64C86.1444 87.976 86.7484 87.432 87.1884 87.008C87.6364 86.576 88.0084 86.128 88.3044 85.664C88.6004 85.2 88.7484 84.736 88.7484 84.272C88.7484 83.792 88.6324 83.416 88.4004 83.144C88.1764 82.872 87.8204 82.736 87.3324 82.736C86.8604 82.736 86.4924 82.888 86.2284 83.192C85.9724 83.488 85.8364 83.888 85.8204 84.392H84.5004C84.5244 83.48 84.7964 82.784 85.3164 82.304C85.8444 81.816 86.5124 81.572 87.3204 81.572C88.1924 81.572 88.8724 81.812 89.3604 82.292C89.8564 82.772 90.1044 83.412 90.1044 84.212C90.1044 84.788 89.9564 85.344 89.6604 85.88C89.3724 86.408 89.0244 86.884 88.6164 87.308C88.2164 87.724 87.7044 88.208 87.0804 88.76L86.5404 89.24H90.3444V90.38H84.5124V89.384L85.3764 88.64ZM100.231 82.16V83.276H98.0114V90.5H96.6434V83.276H94.4114V82.16H100.231ZM104.485 90.608C103.861 90.608 103.297 90.468 102.793 90.188C102.289 89.9 101.893 89.5 101.605 88.988C101.317 88.468 101.173 87.868 101.173 87.188C101.173 86.516 101.321 85.92 101.617 85.4C101.913 84.88 102.317 84.48 102.829 84.2C103.341 83.92 103.913 83.78 104.545 83.78C105.177 83.78 105.749 83.92 106.261 84.2C106.773 84.48 107.177 84.88 107.473 85.4C107.769 85.92 107.917 86.516 107.917 87.188C107.917 87.86 107.765 88.456 107.461 88.976C107.157 89.496 106.741 89.9 106.213 90.188C105.693 90.468 105.117 90.608 104.485 90.608ZM104.485 89.42C104.837 89.42 105.165 89.336 105.469 89.168C105.781 89 106.033 88.748 106.225 88.412C106.417 88.076 106.513 87.668 106.513 87.188C106.513 86.708 106.421 86.304 106.237 85.976C106.053 85.64 105.809 85.388 105.505 85.22C105.201 85.052 104.873 84.968 104.521 84.968C104.169 84.968 103.841 85.052 103.537 85.22C103.241 85.388 103.005 85.64 102.829 85.976C102.653 86.304 102.565 86.708 102.565 87.188C102.565 87.9 102.745 88.452 103.105 88.844C103.473 89.228 103.933 89.42 104.485 89.42ZM111.885 87.2L114.933 90.5H113.085L110.637 87.656V90.5H109.269V81.62H110.637V86.78L113.037 83.888H114.933L111.885 87.2ZM118.782 90.608C118.158 90.608 117.594 90.468 117.09 90.188C116.586 89.9 116.19 89.5 115.902 88.988C115.614 88.468 115.47 87.868 115.47 87.188C115.47 86.516 115.618 85.92 115.914 85.4C116.21 84.88 116.614 84.48 117.126 84.2C117.638 83.92 118.21 83.78 118.842 83.78C119.474 83.78 120.046 83.92 120.558 84.2C121.07 84.48 121.474 84.88 121.77 85.4C122.066 85.92 122.214 86.516 122.214 87.188C122.214 87.86 122.062 88.456 121.758 88.976C121.454 89.496 121.038 89.9 120.51 90.188C119.99 90.468 119.414 90.608 118.782 90.608ZM118.782 89.42C119.134 89.42 119.462 89.336 119.766 89.168C120.078 89 120.33 88.748 120.522 88.412C120.714 88.076 120.81 87.668 120.81 87.188C120.81 86.708 120.718 86.304 120.534 85.976C120.35 85.64 120.106 85.388 119.802 85.22C119.498 85.052 119.17 84.968 118.818 84.968C118.466 84.968 118.138 85.052 117.834 85.22C117.538 85.388 117.302 85.64 117.126 85.976C116.95 86.304 116.862 86.708 116.862 87.188C116.862 87.9 117.042 88.452 117.402 88.844C117.77 89.228 118.23 89.42 118.782 89.42Z" fill="#2BA579"/>
<rect x="12.25" y="387.25" width="759.5" height="0.5" stroke="#E4E6EF" stroke-width="0.5" stroke-dasharray="4 4"/>
<rect x="12.25" y="350.25" width="759.5" height="0.5" stroke="#E4E6EF" stroke-width="0.5" stroke-dasharray="4 4"/>
<rect x="12.25" y="313.25" width="759.5" height="0.5" stroke="#E4E6EF" stroke-width="0.5" stroke-dasharray="4 4"/>
<rect x="12.25" y="276.25" width="759.5" height="0.5" stroke="#E4E6EF" stroke-width="0.5" stroke-dasharray="4 4"/>
<rect x="12.25" y="239.25" width="759.5" height="0.5" stroke="#E4E6EF" stroke-width="0.5" stroke-dasharray="4 4"/>
<rect x="12.25" y="202.25" width="759.5" height="0.5" stroke="#E4E6EF" stroke-width="0.5" stroke-dasharray="4 4"/>
<rect x="12.25" y="165.25" width="759.5" height="0.5" stroke="#E4E6EF" stroke-width="0.5" stroke-dasharray="4 4"/>
<path d="M33.0015 293.5C33.0015 291.292 34.7921 289.501 37.0009 289.501C39.2097 289.501 41.0004 291.292 41.0004 293.5V387.5H33.0015V293.5Z" fill="#EFF2F5"/>
<path d="M17 293.5C17 291.292 18.7906 289.501 20.9994 289.501C23.2083 289.501 24.9989 291.292 24.9989 293.5V387.5H17V293.5Z" fill="#00A3FF"/>
<path d="M98.999 269.501C98.999 267.291 100.79 265.5 103 265.5C105.209 265.5 107 267.291 107 269.501V387.5H98.999V269.501Z" fill="#EFF2F5"/>
<path d="M83.0004 269.501C83.0004 267.291 84.7915 265.5 87.001 265.5C89.2105 265.5 91.0016 267.291 91.0016 269.501V387.5H83.0004V269.501Z" fill="#00A3FF"/>
<path d="M165.002 223.5C165.002 221.291 166.792 219.501 169.001 219.501C171.21 219.501 173.001 221.291 173.001 223.5V387.498H165.002V223.5Z" fill="#EFF2F5"/>
<path d="M149 223.502C149 221.293 150.791 219.503 153 219.503C155.209 219.503 156.999 221.293 156.999 223.502V387.5H149V223.502Z" fill="#00A3FF"/>
<path d="M231.002 183.499C231.002 181.291 232.793 179.5 235.001 179.5C237.21 179.5 239.001 181.291 239.001 183.499V387.5H231.002V183.499Z" fill="#EFF2F5"/>
<path d="M215.001 183.499C215.001 181.291 216.791 179.5 219 179.5C221.209 179.5 222.999 181.291 222.999 183.499V387.5H215.001V183.499Z" fill="#00A3FF"/>
<path d="M296.997 239.502C296.997 237.292 298.789 235.5 300.999 235.5C303.209 235.5 305.001 237.292 305.001 239.502V387.5H296.997V239.502Z" fill="#EFF2F5"/>
<path d="M281.001 239.502C281.001 237.292 282.792 235.5 285.002 235.5C287.212 235.5 289.004 237.292 289.004 239.502V387.5H281.001V239.502Z" fill="#00A3FF"/>
<g filter="url(#filter0_d_1_699)">
<path d="M363.001 271.5C363.001 269.291 364.792 267.5 367.001 267.5C369.21 267.5 371.001 269.291 371.001 271.5V387.5H363.001V271.5Z" fill="#EFF2F5"/>
</g>
<g filter="url(#filter1_d_1_699)">
<path d="M347.001 271.5C347.001 269.291 348.791 267.5 351 267.5C353.209 267.5 355 269.291 355 271.5V387.5H347.001V271.5Z" fill="#00A3FF"/>
</g>
<path d="M429.001 253.5C429.001 251.291 430.792 249.5 433.001 249.5C435.21 249.5 437.001 251.291 437.001 253.5V387.5H429.001V253.5Z" fill="#EFF2F5"/>
<path d="M413.001 253.5C413.001 251.291 414.791 249.5 417 249.5C419.209 249.5 421 251.291 421 253.5V387.5H413.001V253.5Z" fill="#00A3FF"/>
<path d="M495.001 271.5C495.001 269.291 496.792 267.5 499.001 267.5C501.21 267.5 503.001 269.291 503.001 271.5V387.5H495.001V271.5Z" fill="#EFF2F5"/>
<path d="M479.001 271.5C479.001 269.291 480.791 267.5 483 267.5C485.209 267.5 487 269.291 487 271.5V387.5H479.001V271.5Z" fill="#00A3FF"/>
<path d="M561.001 315.5C561.001 313.291 562.792 311.5 565.001 311.5C567.21 311.5 569.001 313.291 569.001 315.5V387.5H561.001V315.5Z" fill="#EFF2F5"/>
<path d="M545.001 315.5C545.001 313.291 546.791 311.5 549 311.5C551.209 311.5 553 313.291 553 315.5V387.5H545.001V315.5Z" fill="#00A3FF"/>
<path d="M627.002 286.5C627.002 284.291 628.792 282.5 631.001 282.5C633.21 282.5 635.001 284.291 635.001 286.5V387.5H627.002V286.5Z" fill="#EFF2F5"/>
<path d="M611.001 286.5C611.001 284.291 612.792 282.5 615 282.5C617.209 282.5 619 284.291 619 286.5V387.5H611.001V286.5Z" fill="#00A3FF"/>
<path d="M693.002 246.5C693.002 244.291 694.792 242.5 697.001 242.5C699.21 242.5 701.001 244.291 701.001 246.5V387.5H693.002V246.5Z" fill="#EFF2F5"/>
<path d="M677.001 246.5C677.001 244.291 678.792 242.5 681.001 242.5C683.209 242.5 685 244.291 685 246.5V387.5H677.001V246.5Z" fill="#00A3FF"/>
<path d="M759.002 227.5C759.002 225.291 760.792 223.5 763.001 223.5C765.21 223.5 767.001 225.291 767.001 227.5V387.5H759.002V227.5Z" fill="#EFF2F5"/>
<path d="M743.001 227.5C743.001 225.291 744.792 223.5 747.001 223.5C749.21 223.5 751 225.291 751 227.5V387.5H743.001V227.5Z" fill="#00A3FF"/>
<path d="M24.582 398.05V403.06C24.582 403.68 24.392 404.17 24.012 404.53C23.6387 404.89 23.1453 405.07 22.532 405.07C21.9187 405.07 21.422 404.89 21.042 404.53C20.6687 404.17 20.482 403.68 20.482 403.06H21.632C21.6387 403.367 21.7153 403.61 21.862 403.79C22.0153 403.97 22.2387 404.06 22.532 404.06C22.8253 404.06 23.0487 403.97 23.202 403.79C23.3553 403.603 23.432 403.36 23.432 403.06V398.05H24.582ZM26.0565 402.22C26.0565 401.667 26.1699 401.177 26.3965 400.75C26.6299 400.323 26.9432 399.993 27.3365 399.76C27.7365 399.52 28.1765 399.4 28.6565 399.4C29.0899 399.4 29.4665 399.487 29.7865 399.66C30.1132 399.827 30.3732 400.037 30.5665 400.29V399.49H31.7165V405H30.5665V404.18C30.3732 404.44 30.1099 404.657 29.7765 404.83C29.4432 405.003 29.0632 405.09 28.6365 405.09C28.1632 405.09 27.7299 404.97 27.3365 404.73C26.9432 404.483 26.6299 404.143 26.3965 403.71C26.1699 403.27 26.0565 402.773 26.0565 402.22ZM30.5665 402.24C30.5665 401.86 30.4865 401.53 30.3265 401.25C30.1732 400.97 29.9699 400.757 29.7165 400.61C29.4632 400.463 29.1899 400.39 28.8965 400.39C28.6032 400.39 28.3299 400.463 28.0765 400.61C27.8232 400.75 27.6165 400.96 27.4565 401.24C27.3032 401.513 27.2265 401.84 27.2265 402.22C27.2265 402.6 27.3032 402.933 27.4565 403.22C27.6165 403.507 27.8232 403.727 28.0765 403.88C28.3365 404.027 28.6099 404.1 28.8965 404.1C29.1899 404.1 29.4632 404.027 29.7165 403.88C29.9699 403.733 30.1732 403.52 30.3265 403.24C30.4865 402.953 30.5665 402.62 30.5665 402.24ZM35.9939 399.4C36.4272 399.4 36.8139 399.49 37.1539 399.67C37.5005 399.85 37.7705 400.117 37.9639 400.47C38.1572 400.823 38.2539 401.25 38.2539 401.75V405H37.1239V401.92C37.1239 401.427 37.0005 401.05 36.7539 400.79C36.5072 400.523 36.1705 400.39 35.7439 400.39C35.3172 400.39 34.9772 400.523 34.7239 400.79C34.4772 401.05 34.3539 401.427 34.3539 401.92V405H33.2139V399.49H34.3539V400.12C34.5405 399.893 34.7772 399.717 35.0639 399.59C35.3572 399.463 35.6672 399.4 35.9939 399.4Z" fill="#7E8299"/>
<path d="M91.2921 398.05V398.98H88.3421V401.03H90.6421V401.96H88.3421V405H87.2021V398.05H91.2921ZM97.3986 402.11C97.3986 402.317 97.3853 402.503 97.3586 402.67H93.1486C93.182 403.11 93.3453 403.463 93.6386 403.73C93.932 403.997 94.292 404.13 94.7186 404.13C95.332 404.13 95.7653 403.873 96.0186 403.36H97.2486C97.082 403.867 96.7786 404.283 96.3386 404.61C95.9053 404.93 95.3653 405.09 94.7186 405.09C94.192 405.09 93.7186 404.973 93.2986 404.74C92.8853 404.5 92.5586 404.167 92.3186 403.74C92.0853 403.307 91.9686 402.807 91.9686 402.24C91.9686 401.673 92.082 401.177 92.3086 400.75C92.542 400.317 92.8653 399.983 93.2786 399.75C93.6986 399.517 94.1786 399.4 94.7186 399.4C95.2386 399.4 95.702 399.513 96.1086 399.74C96.5153 399.967 96.832 400.287 97.0586 400.7C97.2853 401.107 97.3986 401.577 97.3986 402.11ZM96.2086 401.75C96.202 401.33 96.052 400.993 95.7586 400.74C95.4653 400.487 95.102 400.36 94.6686 400.36C94.2753 400.36 93.9386 400.487 93.6586 400.74C93.3786 400.987 93.212 401.323 93.1586 401.75H96.2086ZM99.6605 400.31C99.8538 400.043 100.117 399.827 100.451 399.66C100.791 399.487 101.167 399.4 101.581 399.4C102.067 399.4 102.507 399.517 102.901 399.75C103.294 399.983 103.604 400.317 103.831 400.75C104.057 401.177 104.171 401.667 104.171 402.22C104.171 402.773 104.057 403.27 103.831 403.71C103.604 404.143 103.291 404.483 102.891 404.73C102.497 404.97 102.061 405.09 101.581 405.09C101.154 405.09 100.774 405.007 100.441 404.84C100.114 404.673 99.8538 404.46 99.6605 404.2V405H98.5205V397.6H99.6605V400.31ZM103.011 402.22C103.011 401.84 102.931 401.513 102.771 401.24C102.617 400.96 102.411 400.75 102.151 400.61C101.897 400.463 101.624 400.39 101.331 400.39C101.044 400.39 100.771 400.463 100.511 400.61C100.257 400.757 100.051 400.97 99.8905 401.25C99.7372 401.53 99.6605 401.86 99.6605 402.24C99.6605 402.62 99.7372 402.953 99.8905 403.24C100.051 403.52 100.257 403.733 100.511 403.88C100.771 404.027 101.044 404.1 101.331 404.1C101.624 404.1 101.897 404.027 102.151 403.88C102.411 403.727 102.617 403.507 102.771 403.22C102.931 402.933 103.011 402.6 103.011 402.22Z" fill="#7E8299"/>
<path d="M160.353 398.05V405H159.213V400.24L157.093 405H156.303L154.173 400.24V405H153.033V398.05H154.263L156.703 403.5L159.133 398.05H160.353ZM161.472 402.22C161.472 401.667 161.585 401.177 161.812 400.75C162.045 400.323 162.358 399.993 162.752 399.76C163.152 399.52 163.592 399.4 164.072 399.4C164.505 399.4 164.882 399.487 165.202 399.66C165.528 399.827 165.788 400.037 165.982 400.29V399.49H167.132V405H165.982V404.18C165.788 404.44 165.525 404.657 165.192 404.83C164.858 405.003 164.478 405.09 164.052 405.09C163.578 405.09 163.145 404.97 162.752 404.73C162.358 404.483 162.045 404.143 161.812 403.71C161.585 403.27 161.472 402.773 161.472 402.22ZM165.982 402.24C165.982 401.86 165.902 401.53 165.742 401.25C165.588 400.97 165.385 400.757 165.132 400.61C164.878 400.463 164.605 400.39 164.312 400.39C164.018 400.39 163.745 400.463 163.492 400.61C163.238 400.75 163.032 400.96 162.872 401.24C162.718 401.513 162.642 401.84 162.642 402.22C162.642 402.6 162.718 402.933 162.872 403.22C163.032 403.507 163.238 403.727 163.492 403.88C163.752 404.027 164.025 404.1 164.312 404.1C164.605 404.1 164.878 404.027 165.132 403.88C165.385 403.733 165.588 403.52 165.742 403.24C165.902 402.953 165.982 402.62 165.982 402.24ZM169.769 400.29C169.936 400.01 170.156 399.793 170.429 399.64C170.709 399.48 171.039 399.4 171.419 399.4V400.58H171.129C170.682 400.58 170.342 400.693 170.109 400.92C169.882 401.147 169.769 401.54 169.769 402.1V405H168.629V399.49H169.769V400.29Z" fill="#7E8299"/>
<path d="M224.146 403.58H221.236L220.736 405H219.546L222.036 398.04H223.356L225.846 405H224.646L224.146 403.58ZM223.826 402.65L222.696 399.42L221.556 402.65H223.826ZM228.069 400.3C228.262 400.047 228.525 399.833 228.859 399.66C229.192 399.487 229.569 399.4 229.989 399.4C230.469 399.4 230.905 399.52 231.299 399.76C231.699 399.993 232.012 400.323 232.239 400.75C232.465 401.177 232.579 401.667 232.579 402.22C232.579 402.773 232.465 403.27 232.239 403.71C232.012 404.143 231.699 404.483 231.299 404.73C230.905 404.97 230.469 405.09 229.989 405.09C229.569 405.09 229.195 405.007 228.869 404.84C228.542 404.667 228.275 404.453 228.069 404.2V407.62H226.929V399.49H228.069V400.3ZM231.419 402.22C231.419 401.84 231.339 401.513 231.179 401.24C231.025 400.96 230.819 400.75 230.559 400.61C230.305 400.463 230.032 400.39 229.739 400.39C229.452 400.39 229.179 400.463 228.919 400.61C228.665 400.757 228.459 400.97 228.299 401.25C228.145 401.53 228.069 401.86 228.069 402.24C228.069 402.62 228.145 402.953 228.299 403.24C228.459 403.52 228.665 403.733 228.919 403.88C229.179 404.027 229.452 404.1 229.739 404.1C230.032 404.1 230.305 404.027 230.559 403.88C230.819 403.727 231.025 403.507 231.179 403.22C231.339 402.933 231.419 402.6 231.419 402.22ZM234.846 400.29C235.013 400.01 235.233 399.793 235.506 399.64C235.786 399.48 236.116 399.4 236.496 399.4V400.58H236.206C235.759 400.58 235.419 400.693 235.186 400.92C234.959 401.147 234.846 401.54 234.846 402.1V405H233.706V399.49H234.846V400.29Z" fill="#7E8299"/>
<path d="M290.362 398.05V405H289.222V400.24L287.102 405H286.312L284.182 400.24V405H283.042V398.05H284.272L286.712 403.5L289.142 398.05H290.362ZM291.48 402.22C291.48 401.667 291.594 401.177 291.82 400.75C292.054 400.323 292.367 399.993 292.76 399.76C293.16 399.52 293.6 399.4 294.08 399.4C294.514 399.4 294.89 399.487 295.21 399.66C295.537 399.827 295.797 400.037 295.99 400.29V399.49H297.14V405H295.99V404.18C295.797 404.44 295.534 404.657 295.2 404.83C294.867 405.003 294.487 405.09 294.06 405.09C293.587 405.09 293.154 404.97 292.76 404.73C292.367 404.483 292.054 404.143 291.82 403.71C291.594 403.27 291.48 402.773 291.48 402.22ZM295.99 402.24C295.99 401.86 295.91 401.53 295.75 401.25C295.597 400.97 295.394 400.757 295.14 400.61C294.887 400.463 294.614 400.39 294.32 400.39C294.027 400.39 293.754 400.463 293.5 400.61C293.247 400.75 293.04 400.96 292.88 401.24C292.727 401.513 292.65 401.84 292.65 402.22C292.65 402.6 292.727 402.933 292.88 403.22C293.04 403.507 293.247 403.727 293.5 403.88C293.76 404.027 294.034 404.1 294.32 404.1C294.614 404.1 294.887 404.027 295.14 403.88C295.394 403.733 295.597 403.52 295.75 403.24C295.91 402.953 295.99 402.62 295.99 402.24ZM303.598 399.49L300.218 407.59H299.038L300.158 404.91L297.988 399.49H299.258L300.808 403.69L302.418 399.49H303.598Z" fill="#7E8299"/>
<path d="M354.224 398.05V403.06C354.224 403.68 354.034 404.17 353.654 404.53C353.28 404.89 352.787 405.07 352.174 405.07C351.56 405.07 351.064 404.89 350.684 404.53C350.31 404.17 350.124 403.68 350.124 403.06H351.274C351.28 403.367 351.357 403.61 351.504 403.79C351.657 403.97 351.88 404.06 352.174 404.06C352.467 404.06 352.69 403.97 352.844 403.79C352.997 403.603 353.074 403.36 353.074 403.06V398.05H354.224ZM361.068 399.49V405H359.928V404.35C359.748 404.577 359.511 404.757 359.218 404.89C358.931 405.017 358.625 405.08 358.298 405.08C357.865 405.08 357.475 404.99 357.128 404.81C356.788 404.63 356.518 404.363 356.318 404.01C356.125 403.657 356.028 403.23 356.028 402.73V399.49H357.158V402.56C357.158 403.053 357.281 403.433 357.528 403.7C357.775 403.96 358.111 404.09 358.538 404.09C358.965 404.09 359.301 403.96 359.548 403.7C359.801 403.433 359.928 403.053 359.928 402.56V399.49H361.068ZM365.352 399.4C365.786 399.4 366.172 399.49 366.512 399.67C366.859 399.85 367.129 400.117 367.322 400.47C367.516 400.823 367.612 401.25 367.612 401.75V405H366.482V401.92C366.482 401.427 366.359 401.05 366.112 400.79C365.866 400.523 365.529 400.39 365.102 400.39C364.676 400.39 364.336 400.523 364.082 400.79C363.836 401.05 363.712 401.427 363.712 401.92V405H362.572V399.49H363.712V400.12C363.899 399.893 364.136 399.717 364.422 399.59C364.716 399.463 365.026 399.4 365.352 399.4Z" fill="#7E8299"/>
<path d="M422.153 398.05V403.06C422.153 403.68 421.963 404.17 421.583 404.53C421.209 404.89 420.716 405.07 420.103 405.07C419.489 405.07 418.993 404.89 418.613 404.53C418.239 404.17 418.053 403.68 418.053 403.06H419.203C419.209 403.367 419.286 403.61 419.433 403.79C419.586 403.97 419.809 404.06 420.103 404.06C420.396 404.06 420.619 403.97 420.773 403.79C420.926 403.603 421.003 403.36 421.003 403.06V398.05H422.153ZM428.997 399.49V405H427.857V404.35C427.677 404.577 427.441 404.757 427.147 404.89C426.861 405.017 426.554 405.08 426.227 405.08C425.794 405.08 425.404 404.99 425.057 404.81C424.717 404.63 424.447 404.363 424.247 404.01C424.054 403.657 423.957 403.23 423.957 402.73V399.49H425.087V402.56C425.087 403.053 425.211 403.433 425.457 403.7C425.704 403.96 426.041 404.09 426.467 404.09C426.894 404.09 427.231 403.96 427.477 403.7C427.731 403.433 427.857 403.053 427.857 402.56V399.49H428.997ZM431.641 397.6V405H430.501V397.6H431.641Z" fill="#7E8299"/>
<path d="M485.818 403.58H482.908L482.408 405H481.218L483.708 398.04H485.028L487.518 405H486.318L485.818 403.58ZM485.498 402.65L484.368 399.42L483.228 402.65H485.498ZM493.591 399.49V405H492.451V404.35C492.271 404.577 492.034 404.757 491.741 404.89C491.454 405.017 491.148 405.08 490.821 405.08C490.388 405.08 489.998 404.99 489.651 404.81C489.311 404.63 489.041 404.363 488.841 404.01C488.648 403.657 488.551 403.23 488.551 402.73V399.49H489.681V402.56C489.681 403.053 489.804 403.433 490.051 403.7C490.298 403.96 490.634 404.09 491.061 404.09C491.488 404.09 491.824 403.96 492.071 403.7C492.324 403.433 492.451 403.053 492.451 402.56V399.49H493.591ZM497.315 399.4C497.742 399.4 498.119 399.487 498.445 399.66C498.779 399.827 499.039 400.037 499.225 400.29V399.49H500.375V405.09C500.375 405.597 500.269 406.047 500.055 406.44C499.842 406.84 499.532 407.153 499.125 407.38C498.725 407.607 498.245 407.72 497.685 407.72C496.939 407.72 496.319 407.543 495.825 407.19C495.332 406.843 495.052 406.37 494.985 405.77H496.115C496.202 406.057 496.385 406.287 496.665 406.46C496.952 406.64 497.292 406.73 497.685 406.73C498.145 406.73 498.515 406.59 498.795 406.31C499.082 406.03 499.225 405.623 499.225 405.09V404.17C499.032 404.43 498.769 404.65 498.435 404.83C498.109 405.003 497.735 405.09 497.315 405.09C496.835 405.09 496.395 404.97 495.995 404.73C495.602 404.483 495.289 404.143 495.055 403.71C494.829 403.27 494.715 402.773 494.715 402.22C494.715 401.667 494.829 401.177 495.055 400.75C495.289 400.323 495.602 399.993 495.995 399.76C496.395 399.52 496.835 399.4 497.315 399.4ZM499.225 402.24C499.225 401.86 499.145 401.53 498.985 401.25C498.832 400.97 498.629 400.757 498.375 400.61C498.122 400.463 497.849 400.39 497.555 400.39C497.262 400.39 496.989 400.463 496.735 400.61C496.482 400.75 496.275 400.96 496.115 401.24C495.962 401.513 495.885 401.84 495.885 402.22C495.885 402.6 495.962 402.933 496.115 403.22C496.275 403.507 496.482 403.727 496.735 403.88C496.995 404.027 497.269 404.1 497.555 404.1C497.849 404.1 498.122 404.027 498.375 403.88C498.629 403.733 498.832 403.52 498.985 403.24C499.145 402.953 499.225 402.62 499.225 402.24Z" fill="#7E8299"/>
<path d="M550.548 405.07C550.082 405.07 549.662 404.99 549.288 404.83C548.915 404.663 548.622 404.43 548.408 404.13C548.195 403.83 548.088 403.48 548.088 403.08H549.308C549.335 403.38 549.452 403.627 549.658 403.82C549.872 404.013 550.168 404.11 550.548 404.11C550.942 404.11 551.248 404.017 551.468 403.83C551.688 403.637 551.798 403.39 551.798 403.09C551.798 402.857 551.728 402.667 551.588 402.52C551.455 402.373 551.285 402.26 551.078 402.18C550.878 402.1 550.598 402.013 550.238 401.92C549.785 401.8 549.415 401.68 549.128 401.56C548.848 401.433 548.608 401.24 548.408 400.98C548.208 400.72 548.108 400.373 548.108 399.94C548.108 399.54 548.208 399.19 548.408 398.89C548.608 398.59 548.888 398.36 549.248 398.2C549.608 398.04 550.025 397.96 550.498 397.96C551.172 397.96 551.722 398.13 552.148 398.47C552.582 398.803 552.822 399.263 552.868 399.85H551.608C551.588 399.597 551.468 399.38 551.248 399.2C551.028 399.02 550.738 398.93 550.378 398.93C550.052 398.93 549.785 399.013 549.578 399.18C549.372 399.347 549.268 399.587 549.268 399.9C549.268 400.113 549.332 400.29 549.458 400.43C549.592 400.563 549.758 400.67 549.958 400.75C550.158 400.83 550.432 400.917 550.778 401.01C551.238 401.137 551.612 401.263 551.898 401.39C552.192 401.517 552.438 401.713 552.638 401.98C552.845 402.24 552.948 402.59 552.948 403.03C552.948 403.383 552.852 403.717 552.658 404.03C552.472 404.343 552.195 404.597 551.828 404.79C551.468 404.977 551.042 405.07 550.548 405.07ZM559.343 402.11C559.343 402.317 559.33 402.503 559.303 402.67H555.093C555.127 403.11 555.29 403.463 555.583 403.73C555.877 403.997 556.237 404.13 556.663 404.13C557.277 404.13 557.71 403.873 557.963 403.36H559.193C559.027 403.867 558.723 404.283 558.283 404.61C557.85 404.93 557.31 405.09 556.663 405.09C556.137 405.09 555.663 404.973 555.243 404.74C554.83 404.5 554.503 404.167 554.263 403.74C554.03 403.307 553.913 402.807 553.913 402.24C553.913 401.673 554.027 401.177 554.253 400.75C554.487 400.317 554.81 399.983 555.223 399.75C555.643 399.517 556.123 399.4 556.663 399.4C557.183 399.4 557.647 399.513 558.053 399.74C558.46 399.967 558.777 400.287 559.003 400.7C559.23 401.107 559.343 401.577 559.343 402.11ZM558.153 401.75C558.147 401.33 557.997 400.993 557.703 400.74C557.41 400.487 557.047 400.36 556.613 400.36C556.22 400.36 555.883 400.487 555.603 400.74C555.323 400.987 555.157 401.323 555.103 401.75H558.153ZM561.605 400.3C561.799 400.047 562.062 399.833 562.395 399.66C562.729 399.487 563.105 399.4 563.525 399.4C564.005 399.4 564.442 399.52 564.835 399.76C565.235 399.993 565.549 400.323 565.775 400.75C566.002 401.177 566.115 401.667 566.115 402.22C566.115 402.773 566.002 403.27 565.775 403.71C565.549 404.143 565.235 404.483 564.835 404.73C564.442 404.97 564.005 405.09 563.525 405.09C563.105 405.09 562.732 405.007 562.405 404.84C562.079 404.667 561.812 404.453 561.605 404.2V407.62H560.465V399.49H561.605V400.3ZM564.955 402.22C564.955 401.84 564.875 401.513 564.715 401.24C564.562 400.96 564.355 400.75 564.095 400.61C563.842 400.463 563.569 400.39 563.275 400.39C562.989 400.39 562.715 400.463 562.455 400.61C562.202 400.757 561.995 400.97 561.835 401.25C561.682 401.53 561.605 401.86 561.605 402.24C561.605 402.62 561.682 402.953 561.835 403.24C561.995 403.52 562.202 403.733 562.455 403.88C562.715 404.027 562.989 404.1 563.275 404.1C563.569 404.1 563.842 404.027 564.095 403.88C564.355 403.727 564.562 403.507 564.715 403.22C564.875 402.933 564.955 402.6 564.955 402.22Z" fill="#7E8299"/>
<path d="M618.141 405.07C617.495 405.07 616.898 404.92 616.351 404.62C615.811 404.313 615.381 403.89 615.061 403.35C614.748 402.803 614.591 402.19 614.591 401.51C614.591 400.83 614.748 400.22 615.061 399.68C615.381 399.14 615.811 398.72 616.351 398.42C616.898 398.113 617.495 397.96 618.141 397.96C618.795 397.96 619.391 398.113 619.931 398.42C620.478 398.72 620.908 399.14 621.221 399.68C621.535 400.22 621.691 400.83 621.691 401.51C621.691 402.19 621.535 402.803 621.221 403.35C620.908 403.89 620.478 404.313 619.931 404.62C619.391 404.92 618.795 405.07 618.141 405.07ZM618.141 404.08C618.601 404.08 619.011 403.977 619.371 403.77C619.731 403.557 620.011 403.257 620.211 402.87C620.418 402.477 620.521 402.023 620.521 401.51C620.521 400.997 620.418 400.547 620.211 400.16C620.011 399.773 619.731 399.477 619.371 399.27C619.011 399.063 618.601 398.96 618.141 398.96C617.681 398.96 617.271 399.063 616.911 399.27C616.551 399.477 616.268 399.773 616.061 400.16C615.861 400.547 615.761 400.997 615.761 401.51C615.761 402.023 615.861 402.477 616.061 402.87C616.268 403.257 616.551 403.557 616.911 403.77C617.271 403.977 617.681 404.08 618.141 404.08ZM622.433 402.24C622.433 401.673 622.546 401.177 622.773 400.75C623.006 400.317 623.326 399.983 623.733 399.75C624.14 399.517 624.606 399.4 625.133 399.4C625.8 399.4 626.35 399.56 626.783 399.88C627.223 400.193 627.52 400.643 627.673 401.23H626.443C626.343 400.957 626.183 400.743 625.963 400.59C625.743 400.437 625.466 400.36 625.133 400.36C624.666 400.36 624.293 400.527 624.013 400.86C623.74 401.187 623.603 401.647 623.603 402.24C623.603 402.833 623.74 403.297 624.013 403.63C624.293 403.963 624.666 404.13 625.133 404.13C625.793 404.13 626.23 403.84 626.443 403.26H627.673C627.513 403.82 627.213 404.267 626.773 404.6C626.333 404.927 625.786 405.09 625.133 405.09C624.606 405.09 624.14 404.973 623.733 404.74C623.326 404.5 623.006 404.167 622.773 403.74C622.546 403.307 622.433 402.807 622.433 402.24ZM630.139 400.42V403.47C630.139 403.677 630.186 403.827 630.279 403.92C630.379 404.007 630.546 404.05 630.779 404.05H631.479V405H630.579C630.066 405 629.672 404.88 629.399 404.64C629.126 404.4 628.989 404.01 628.989 403.47V400.42H628.339V399.49H628.989V398.12H630.139V399.49H631.479V400.42H630.139Z" fill="#7E8299"/>
<path d="M685.788 405H684.648L681.218 399.81V405H680.078V398.04H681.218L684.648 403.22V398.04H685.788V405ZM689.675 405.09C689.155 405.09 688.685 404.973 688.265 404.74C687.845 404.5 687.515 404.167 687.275 403.74C687.035 403.307 686.915 402.807 686.915 402.24C686.915 401.68 687.038 401.183 687.285 400.75C687.531 400.317 687.868 399.983 688.295 399.75C688.721 399.517 689.198 399.4 689.725 399.4C690.251 399.4 690.728 399.517 691.155 399.75C691.581 399.983 691.918 400.317 692.165 400.75C692.411 401.183 692.535 401.68 692.535 402.24C692.535 402.8 692.408 403.297 692.155 403.73C691.901 404.163 691.555 404.5 691.115 404.74C690.681 404.973 690.201 405.09 689.675 405.09ZM689.675 404.1C689.968 404.1 690.241 404.03 690.495 403.89C690.755 403.75 690.965 403.54 691.125 403.26C691.285 402.98 691.365 402.64 691.365 402.24C691.365 401.84 691.288 401.503 691.135 401.23C690.981 400.95 690.778 400.74 690.525 400.6C690.271 400.46 689.998 400.39 689.705 400.39C689.411 400.39 689.138 400.46 688.885 400.6C688.638 400.74 688.441 400.95 688.295 401.23C688.148 401.503 688.075 401.84 688.075 402.24C688.075 402.833 688.225 403.293 688.525 403.62C688.831 403.94 689.215 404.1 689.675 404.1ZM695.792 403.98L697.352 399.49H698.562L696.462 405H695.102L693.012 399.49H694.232L695.792 403.98Z" fill="#7E8299"/>
<path d="M748.719 398.05C749.459 398.05 750.105 398.193 750.659 398.48C751.219 398.76 751.649 399.167 751.949 399.7C752.255 400.227 752.409 400.843 752.409 401.55C752.409 402.257 752.255 402.87 751.949 403.39C751.649 403.91 751.219 404.31 750.659 404.59C750.105 404.863 749.459 405 748.719 405H746.449V398.05H748.719ZM748.719 404.07C749.532 404.07 750.155 403.85 750.589 403.41C751.022 402.97 751.239 402.35 751.239 401.55C751.239 400.743 751.022 400.113 750.589 399.66C750.155 399.207 749.532 398.98 748.719 398.98H747.589V404.07H748.719ZM758.589 402.11C758.589 402.317 758.575 402.503 758.549 402.67H754.339C754.372 403.11 754.535 403.463 754.829 403.73C755.122 403.997 755.482 404.13 755.909 404.13C756.522 404.13 756.955 403.873 757.209 403.36H758.439C758.272 403.867 757.969 404.283 757.529 404.61C757.095 404.93 756.555 405.09 755.909 405.09C755.382 405.09 754.909 404.973 754.489 404.74C754.075 404.5 753.749 404.167 753.509 403.74C753.275 403.307 753.159 402.807 753.159 402.24C753.159 401.673 753.272 401.177 753.499 400.75C753.732 400.317 754.055 399.983 754.469 399.75C754.889 399.517 755.369 399.4 755.909 399.4C756.429 399.4 756.892 399.513 757.299 399.74C757.705 399.967 758.022 400.287 758.249 400.7C758.475 401.107 758.589 401.577 758.589 402.11ZM757.399 401.75C757.392 401.33 757.242 400.993 756.949 400.74C756.655 400.487 756.292 400.36 755.859 400.36C755.465 400.36 755.129 400.487 754.849 400.74C754.569 400.987 754.402 401.323 754.349 401.75H757.399ZM761.71 405.09C761.277 405.09 760.887 405.013 760.54 404.86C760.2 404.7 759.93 404.487 759.73 404.22C759.53 403.947 759.424 403.643 759.41 403.31H760.59C760.61 403.543 760.72 403.74 760.92 403.9C761.127 404.053 761.384 404.13 761.69 404.13C762.01 404.13 762.257 404.07 762.43 403.95C762.61 403.823 762.7 403.663 762.7 403.47C762.7 403.263 762.6 403.11 762.4 403.01C762.207 402.91 761.897 402.8 761.47 402.68C761.057 402.567 760.72 402.457 760.46 402.35C760.2 402.243 759.974 402.08 759.78 401.86C759.594 401.64 759.5 401.35 759.5 400.99C759.5 400.697 759.587 400.43 759.76 400.19C759.934 399.943 760.18 399.75 760.5 399.61C760.827 399.47 761.2 399.4 761.62 399.4C762.247 399.4 762.75 399.56 763.13 399.88C763.517 400.193 763.724 400.623 763.75 401.17H762.61C762.59 400.923 762.49 400.727 762.31 400.58C762.13 400.433 761.887 400.36 761.58 400.36C761.28 400.36 761.05 400.417 760.89 400.53C760.73 400.643 760.65 400.793 760.65 400.98C760.65 401.127 760.704 401.25 760.81 401.35C760.917 401.45 761.047 401.53 761.2 401.59C761.354 401.643 761.58 401.713 761.88 401.8C762.28 401.907 762.607 402.017 762.86 402.13C763.12 402.237 763.344 402.397 763.53 402.61C763.717 402.823 763.814 403.107 763.82 403.46C763.82 403.773 763.734 404.053 763.56 404.3C763.387 404.547 763.14 404.74 762.82 404.88C762.507 405.02 762.137 405.09 761.71 405.09Z" fill="#7E8299"/>
<g filter="url(#filter2_d_1_699)">
<rect x="359" y="218" width="100" height="63" rx="6" fill="white" shape-rendering="crispEdges"/>
<path d="M396.448 234.66V240.672C396.448 241.416 396.22 242.004 395.764 242.436C395.316 242.868 394.724 243.084 393.988 243.084C393.252 243.084 392.656 242.868 392.2 242.436C391.752 242.004 391.528 241.416 391.528 240.672H392.908C392.916 241.04 393.008 241.332 393.184 241.548C393.368 241.764 393.636 241.872 393.988 241.872C394.34 241.872 394.608 241.764 394.792 241.548C394.976 241.324 395.068 241.032 395.068 240.672V234.66H396.448ZM404.661 236.388V243H403.293V242.22C403.077 242.492 402.793 242.708 402.441 242.868C402.097 243.02 401.729 243.096 401.337 243.096C400.817 243.096 400.349 242.988 399.933 242.772C399.525 242.556 399.201 242.236 398.961 241.812C398.729 241.388 398.613 240.876 398.613 240.276V236.388H399.969V240.072C399.969 240.664 400.117 241.12 400.413 241.44C400.709 241.752 401.113 241.908 401.625 241.908C402.137 241.908 402.541 241.752 402.837 241.44C403.141 241.12 403.293 240.664 403.293 240.072V236.388H404.661ZM409.802 236.28C410.322 236.28 410.786 236.388 411.194 236.604C411.61 236.82 411.934 237.14 412.166 237.564C412.398 237.988 412.514 238.5 412.514 239.1V243H411.158V239.304C411.158 238.712 411.01 238.26 410.714 237.948C410.418 237.628 410.014 237.468 409.502 237.468C408.99 237.468 408.582 237.628 408.278 237.948C407.982 238.26 407.834 238.712 407.834 239.304V243H406.466V236.388H407.834V237.144C408.058 236.872 408.342 236.66 408.686 236.508C409.038 236.356 409.41 236.28 409.802 236.28ZM414.955 235.512C414.707 235.512 414.499 235.428 414.331 235.26C414.163 235.092 414.079 234.884 414.079 234.636C414.079 234.388 414.163 234.18 414.331 234.012C414.499 233.844 414.707 233.76 414.955 233.76C415.195 233.76 415.399 233.844 415.567 234.012C415.735 234.18 415.819 234.388 415.819 234.636C415.819 234.884 415.735 235.092 415.567 235.26C415.399 235.428 415.195 235.512 414.955 235.512ZM415.627 236.388V243H414.259V236.388H415.627Z" fill="#7E8299"/>
<path d="M398.602 254.488H394.066V256.882C394.262 256.639 394.542 256.443 394.906 256.294C395.27 256.135 395.657 256.056 396.068 256.056C396.815 256.056 397.426 256.219 397.902 256.546C398.378 256.873 398.723 257.293 398.938 257.806C399.153 258.31 399.26 258.851 399.26 259.43C399.26 260.503 398.952 261.367 398.336 262.02C397.729 262.673 396.861 263 395.732 263C394.668 263 393.819 262.734 393.184 262.202C392.549 261.67 392.19 260.975 392.106 260.116H394.01C394.094 260.489 394.281 260.788 394.57 261.012C394.869 261.236 395.247 261.348 395.704 261.348C396.255 261.348 396.67 261.175 396.95 260.83C397.23 260.485 397.37 260.027 397.37 259.458C397.37 258.879 397.225 258.441 396.936 258.142C396.656 257.834 396.241 257.68 395.69 257.68C395.298 257.68 394.971 257.778 394.71 257.974C394.449 258.17 394.262 258.431 394.15 258.758H392.274V252.766H398.602V254.488ZM408.848 263.098C407.933 263.098 407.093 262.883 406.328 262.454C405.562 262.025 404.956 261.432 404.508 260.676C404.06 259.911 403.836 259.047 403.836 258.086C403.836 257.134 404.06 256.28 404.508 255.524C404.956 254.759 405.562 254.161 406.328 253.732C407.093 253.303 407.933 253.088 408.848 253.088C409.772 253.088 410.612 253.303 411.368 253.732C412.133 254.161 412.735 254.759 413.174 255.524C413.622 256.28 413.846 257.134 413.846 258.086C413.846 259.047 413.622 259.911 413.174 260.676C412.735 261.432 412.133 262.025 411.368 262.454C410.602 262.883 409.762 263.098 408.848 263.098ZM408.848 261.348C409.436 261.348 409.954 261.217 410.402 260.956C410.85 260.685 411.2 260.303 411.452 259.808C411.704 259.313 411.83 258.739 411.83 258.086C411.83 257.433 411.704 256.863 411.452 256.378C411.2 255.883 410.85 255.505 410.402 255.244C409.954 254.983 409.436 254.852 408.848 254.852C408.26 254.852 407.737 254.983 407.28 255.244C406.832 255.505 406.482 255.883 406.23 256.378C405.978 256.863 405.852 257.433 405.852 258.086C405.852 258.739 405.978 259.313 406.23 259.808C406.482 260.303 406.832 260.685 407.28 260.956C407.737 261.217 408.26 261.348 408.848 261.348ZM422.626 255.244V263H420.652V262.02C420.4 262.356 420.069 262.622 419.658 262.818C419.257 263.005 418.818 263.098 418.342 263.098C417.735 263.098 417.199 262.972 416.732 262.72C416.265 262.459 415.897 262.081 415.626 261.586C415.365 261.082 415.234 260.485 415.234 259.794V255.244H417.194V259.514C417.194 260.13 417.348 260.606 417.656 260.942C417.964 261.269 418.384 261.432 418.916 261.432C419.457 261.432 419.882 261.269 420.19 260.942C420.498 260.606 420.652 260.13 420.652 259.514V255.244H422.626ZM426.842 256.854V260.606C426.842 260.867 426.902 261.059 427.024 261.18C427.154 261.292 427.369 261.348 427.668 261.348H428.578V263H427.346C425.694 263 424.868 262.197 424.868 260.592V256.854H423.944V255.244H424.868V253.326H426.842V255.244H428.578V256.854H426.842ZM431.947 252.64V263H429.987V252.64H431.947ZM441.094 258.954C441.094 259.234 441.075 259.486 441.038 259.71H435.368C435.415 260.27 435.611 260.709 435.956 261.026C436.301 261.343 436.726 261.502 437.23 261.502C437.958 261.502 438.476 261.189 438.784 260.564H440.898C440.674 261.311 440.245 261.927 439.61 262.412C438.975 262.888 438.196 263.126 437.272 263.126C436.525 263.126 435.853 262.963 435.256 262.636C434.668 262.3 434.206 261.829 433.87 261.222C433.543 260.615 433.38 259.915 433.38 259.122C433.38 258.319 433.543 257.615 433.87 257.008C434.197 256.401 434.654 255.935 435.242 255.608C435.83 255.281 436.507 255.118 437.272 255.118C438.009 255.118 438.667 255.277 439.246 255.594C439.834 255.911 440.287 256.364 440.604 256.952C440.931 257.531 441.094 258.198 441.094 258.954ZM439.064 258.394C439.055 257.89 438.873 257.489 438.518 257.19C438.163 256.882 437.729 256.728 437.216 256.728C436.731 256.728 436.32 256.877 435.984 257.176C435.657 257.465 435.457 257.871 435.382 258.394H439.064ZM444.807 256.854V260.606C444.807 260.867 444.867 261.059 444.989 261.18C445.119 261.292 445.334 261.348 445.633 261.348H446.543V263H445.311C443.659 263 442.833 262.197 442.833 260.592V256.854H441.909V255.244H442.833V253.326H444.807V255.244H446.543V256.854H444.807Z" fill="#171C32"/>
<rect x="371" y="233" width="12" height="12" rx="4" fill="#00A3FF"/>
<rect x="359" y="218" width="100" height="63" rx="6" stroke="#EFF2F5" shape-rendering="crispEdges"/>
</g>
<path d="M594.72 70.27L591.836 80H590.03L587.986 72.636L585.816 80L584.024 80.014L581.266 70.27H582.96L584.976 78.194L587.16 70.27H588.952L590.982 78.152L593.012 70.27H594.72ZM603.106 75.954C603.106 76.2433 603.088 76.5047 603.05 76.738H597.156C597.203 77.354 597.432 77.8487 597.842 78.222C598.253 78.5953 598.757 78.782 599.354 78.782C600.213 78.782 600.82 78.4227 601.174 77.704H602.896C602.663 78.4133 602.238 78.9967 601.622 79.454C601.016 79.902 600.26 80.126 599.354 80.126C598.617 80.126 597.954 79.9627 597.366 79.636C596.788 79.3 596.33 78.8333 595.994 78.236C595.668 77.6293 595.504 76.9293 595.504 76.136C595.504 75.3427 595.663 74.6473 595.98 74.05C596.307 73.4433 596.76 72.9767 597.338 72.65C597.926 72.3233 598.598 72.16 599.354 72.16C600.082 72.16 600.731 72.3187 601.3 72.636C601.87 72.9533 602.313 73.4013 602.63 73.98C602.948 74.5493 603.106 75.2073 603.106 75.954ZM601.44 75.45C601.431 74.862 601.221 74.3907 600.81 74.036C600.4 73.6813 599.891 73.504 599.284 73.504C598.734 73.504 598.262 73.6813 597.87 74.036C597.478 74.3813 597.245 74.8527 597.17 75.45H601.44ZM611.747 75.954C611.747 76.2433 611.728 76.5047 611.691 76.738H605.797C605.844 77.354 606.072 77.8487 606.483 78.222C606.894 78.5953 607.398 78.782 607.995 78.782C608.854 78.782 609.46 78.4227 609.815 77.704H611.537C611.304 78.4133 610.879 78.9967 610.263 79.454C609.656 79.902 608.9 80.126 607.995 80.126C607.258 80.126 606.595 79.9627 606.007 79.636C605.428 79.3 604.971 78.8333 604.635 78.236C604.308 77.6293 604.145 76.9293 604.145 76.136C604.145 75.3427 604.304 74.6473 604.621 74.05C604.948 73.4433 605.4 72.9767 605.979 72.65C606.567 72.3233 607.239 72.16 607.995 72.16C608.723 72.16 609.372 72.3187 609.941 72.636C610.51 72.9533 610.954 73.4013 611.271 73.98C611.588 74.5493 611.747 75.2073 611.747 75.954ZM610.081 75.45C610.072 74.862 609.862 74.3907 609.451 74.036C609.04 73.6813 608.532 73.504 607.925 73.504C607.374 73.504 606.903 73.6813 606.511 74.036C606.119 74.3813 605.886 74.8527 605.811 75.45H610.081ZM616.37 76.15L619.926 80H617.77L614.914 76.682V80H613.318V69.64H614.914V75.66L617.714 72.286H619.926L616.37 76.15Z" fill="#7E8299"/>
<rect x="646" y="61" width="61" height="29" rx="6" fill="#ECF8FF"/>
<path d="M665.298 70.27V80H663.702V73.336L660.734 80H659.628L656.646 73.336V80H655.05V70.27H656.772L660.188 77.9L663.59 70.27H665.298ZM670.742 80.126C670.014 80.126 669.356 79.9627 668.768 79.636C668.18 79.3 667.718 78.8333 667.382 78.236C667.046 77.6293 666.878 76.9293 666.878 76.136C666.878 75.352 667.05 74.6567 667.396 74.05C667.741 73.4433 668.212 72.9767 668.81 72.65C669.407 72.3233 670.074 72.16 670.812 72.16C671.549 72.16 672.216 72.3233 672.814 72.65C673.411 72.9767 673.882 73.4433 674.228 74.05C674.573 74.6567 674.746 75.352 674.746 76.136C674.746 76.92 674.568 77.6153 674.214 78.222C673.859 78.8287 673.374 79.3 672.758 79.636C672.151 79.9627 671.479 80.126 670.742 80.126ZM670.742 78.74C671.152 78.74 671.535 78.642 671.89 78.446C672.254 78.25 672.548 77.956 672.772 77.564C672.996 77.172 673.108 76.696 673.108 76.136C673.108 75.576 673 75.1047 672.786 74.722C672.571 74.33 672.286 74.036 671.932 73.84C671.577 73.644 671.194 73.546 670.784 73.546C670.373 73.546 669.99 73.644 669.636 73.84C669.29 74.036 669.015 74.33 668.81 74.722C668.604 75.1047 668.502 75.576 668.502 76.136C668.502 76.9667 668.712 77.6107 669.132 78.068C669.561 78.516 670.098 78.74 670.742 78.74ZM680.215 72.16C680.822 72.16 681.363 72.286 681.839 72.538C682.325 72.79 682.703 73.1633 682.973 73.658C683.244 74.1527 683.379 74.75 683.379 75.45V80H681.797V75.688C681.797 74.9973 681.625 74.47 681.279 74.106C680.934 73.7327 680.463 73.546 679.865 73.546C679.268 73.546 678.792 73.7327 678.437 74.106C678.092 74.47 677.919 74.9973 677.919 75.688V80H676.323V72.286H677.919V73.168C678.181 72.8507 678.512 72.6033 678.913 72.426C679.324 72.2487 679.758 72.16 680.215 72.16ZM687.277 73.588V77.858C687.277 78.1473 687.343 78.3573 687.473 78.488C687.613 78.6093 687.847 78.67 688.173 78.67H689.153V80H687.893C687.175 80 686.624 79.832 686.241 79.496C685.859 79.16 685.667 78.614 685.667 77.858V73.588H684.757V72.286H685.667V70.368H687.277V72.286H689.153V73.588H687.277ZM694.614 72.16C695.202 72.16 695.725 72.286 696.182 72.538C696.649 72.79 697.013 73.1633 697.274 73.658C697.545 74.1527 697.68 74.75 697.68 75.45V80H696.098V75.688C696.098 74.9973 695.926 74.47 695.58 74.106C695.235 73.7327 694.764 73.546 694.166 73.546C693.569 73.546 693.093 73.7327 692.738 74.106C692.393 74.47 692.22 74.9973 692.22 75.688V80H690.624V69.64H692.22V73.182C692.491 72.8553 692.832 72.6033 693.242 72.426C693.662 72.2487 694.12 72.16 694.614 72.16Z" fill="#0095E8"/>
<path d="M740.26 70.27L737.04 76.472V80H735.444V76.472L732.21 70.27H733.988L736.242 75.044L738.496 70.27H740.26ZM748.597 75.954C748.597 76.2433 748.578 76.5047 748.541 76.738H742.647C742.693 77.354 742.922 77.8487 743.333 78.222C743.743 78.5953 744.247 78.782 744.845 78.782C745.703 78.782 746.31 78.4227 746.665 77.704H748.387C748.153 78.4133 747.729 78.9967 747.113 79.454C746.506 79.902 745.75 80.126 744.845 80.126C744.107 80.126 743.445 79.9627 742.857 79.636C742.278 79.3 741.821 78.8333 741.485 78.236C741.158 77.6293 740.995 76.9293 740.995 76.136C740.995 75.3427 741.153 74.6473 741.471 74.05C741.797 73.4433 742.25 72.9767 742.829 72.65C743.417 72.3233 744.089 72.16 744.845 72.16C745.573 72.16 746.221 72.3187 746.791 72.636C747.36 72.9533 747.803 73.4013 748.121 73.98C748.438 74.5493 748.597 75.2073 748.597 75.954ZM746.931 75.45C746.921 74.862 746.711 74.3907 746.301 74.036C745.89 73.6813 745.381 73.504 744.775 73.504C744.224 73.504 743.753 73.6813 743.361 74.036C742.969 74.3813 742.735 74.8527 742.661 75.45H746.931ZM749.635 76.108C749.635 75.3333 749.794 74.6473 750.111 74.05C750.438 73.4527 750.877 72.9907 751.427 72.664C751.987 72.328 752.603 72.16 753.275 72.16C753.882 72.16 754.409 72.2813 754.857 72.524C755.315 72.7573 755.679 73.0513 755.949 73.406V72.286H757.559V80H755.949V78.852C755.679 79.216 755.31 79.5193 754.843 79.762C754.377 80.0047 753.845 80.126 753.247 80.126C752.585 80.126 751.978 79.958 751.427 79.622C750.877 79.2767 750.438 78.8007 750.111 78.194C749.794 77.578 749.635 76.8827 749.635 76.108ZM755.949 76.136C755.949 75.604 755.837 75.142 755.613 74.75C755.399 74.358 755.114 74.0593 754.759 73.854C754.405 73.6487 754.022 73.546 753.611 73.546C753.201 73.546 752.818 73.6487 752.463 73.854C752.109 74.05 751.819 74.344 751.595 74.736C751.381 75.1187 751.273 75.576 751.273 76.108C751.273 76.64 751.381 77.1067 751.595 77.508C751.819 77.9093 752.109 78.2173 752.463 78.432C752.827 78.6373 753.21 78.74 753.611 78.74C754.022 78.74 754.405 78.6373 754.759 78.432C755.114 78.2267 755.399 77.928 755.613 77.536C755.837 77.1347 755.949 76.668 755.949 76.136ZM761.251 73.406C761.485 73.014 761.793 72.7107 762.175 72.496C762.567 72.272 763.029 72.16 763.561 72.16V73.812H763.155C762.53 73.812 762.054 73.9707 761.727 74.288C761.41 74.6053 761.251 75.156 761.251 75.94V80H759.655V72.286H761.251V73.406Z" fill="#7E8299"/>
<rect x="711" y="102" width="61" height="26" rx="6" fill="white"/>
<path d="M720.476 117.14C721.244 116.476 721.848 115.932 722.288 115.508C722.736 115.076 723.108 114.628 723.404 114.164C723.7 113.7 723.848 113.236 723.848 112.772C723.848 112.292 723.732 111.916 723.5 111.644C723.276 111.372 722.92 111.236 722.432 111.236C721.96 111.236 721.592 111.388 721.328 111.692C721.072 111.988 720.936 112.388 720.92 112.892H719.6C719.624 111.98 719.896 111.284 720.416 110.804C720.944 110.316 721.612 110.072 722.42 110.072C723.292 110.072 723.972 110.312 724.46 110.792C724.956 111.272 725.204 111.912 725.204 112.712C725.204 113.288 725.056 113.844 724.76 114.38C724.472 114.908 724.124 115.384 723.716 115.808C723.316 116.224 722.804 116.708 722.18 117.26L721.64 117.74H725.444V118.88H719.612V117.884L720.476 117.14ZM726.646 114.512C726.646 113.128 726.878 112.048 727.342 111.272C727.814 110.488 728.622 110.096 729.766 110.096C730.91 110.096 731.714 110.488 732.178 111.272C732.65 112.048 732.886 113.128 732.886 114.512C732.886 115.912 732.65 117.008 732.178 117.8C731.714 118.584 730.91 118.976 729.766 118.976C728.622 118.976 727.814 118.584 727.342 117.8C726.878 117.008 726.646 115.912 726.646 114.512ZM731.542 114.512C731.542 113.864 731.498 113.316 731.41 112.868C731.33 112.42 731.162 112.056 730.906 111.776C730.65 111.488 730.27 111.344 729.766 111.344C729.262 111.344 728.882 111.488 728.626 111.776C728.37 112.056 728.198 112.42 728.11 112.868C728.03 113.316 727.99 113.864 727.99 114.512C727.99 115.184 728.03 115.748 728.11 116.204C728.19 116.66 728.358 117.028 728.614 117.308C728.878 117.588 729.262 117.728 729.766 117.728C730.27 117.728 730.65 117.588 730.906 117.308C731.17 117.028 731.342 116.66 731.422 116.204C731.502 115.748 731.542 115.184 731.542 114.512ZM735.089 117.14C735.857 116.476 736.461 115.932 736.901 115.508C737.349 115.076 737.721 114.628 738.017 114.164C738.313 113.7 738.461 113.236 738.461 112.772C738.461 112.292 738.345 111.916 738.113 111.644C737.889 111.372 737.533 111.236 737.045 111.236C736.573 111.236 736.205 111.388 735.941 111.692C735.685 111.988 735.549 112.388 735.533 112.892H734.213C734.237 111.98 734.509 111.284 735.029 110.804C735.557 110.316 736.225 110.072 737.033 110.072C737.905 110.072 738.585 110.312 739.073 110.792C739.569 111.272 739.817 111.912 739.817 112.712C739.817 113.288 739.669 113.844 739.373 114.38C739.085 114.908 738.737 115.384 738.329 115.808C737.929 116.224 737.417 116.708 736.793 117.26L736.253 117.74H740.057V118.88H734.225V117.884L735.089 117.14ZM742.015 117.14C742.783 116.476 743.387 115.932 743.827 115.508C744.275 115.076 744.647 114.628 744.943 114.164C745.239 113.7 745.387 113.236 745.387 112.772C745.387 112.292 745.271 111.916 745.039 111.644C744.815 111.372 744.459 111.236 743.971 111.236C743.499 111.236 743.131 111.388 742.867 111.692C742.611 111.988 742.475 112.388 742.459 112.892H741.139C741.163 111.98 741.435 111.284 741.955 110.804C742.483 110.316 743.151 110.072 743.959 110.072C744.831 110.072 745.511 110.312 745.999 110.792C746.495 111.272 746.743 111.912 746.743 112.712C746.743 113.288 746.595 113.844 746.299 114.38C746.011 114.908 745.663 115.384 745.255 115.808C744.855 116.224 744.343 116.708 743.719 117.26L743.179 117.74H746.983V118.88H741.151V117.884L742.015 117.14Z" fill="#7E8299"/>
<path d="M762.75 112.81C762.604 112.81 762.463 112.861 762.35 112.954L759 115.754L755.644 113.054C755.58 113.002 755.507 112.963 755.428 112.94C755.349 112.916 755.266 112.909 755.184 112.918C755.102 112.926 755.023 112.951 754.951 112.991C754.878 113.03 754.815 113.083 754.763 113.148C754.711 113.212 754.672 113.285 754.649 113.364C754.626 113.443 754.618 113.526 754.627 113.608C754.635 113.69 754.66 113.769 754.7 113.841C754.739 113.914 754.793 113.977 754.857 114.029L758.607 117.048C758.719 117.14 758.859 117.19 759.004 117.19C759.148 117.19 759.289 117.14 759.4 117.048L763.15 113.923C763.214 113.87 763.266 113.806 763.304 113.733C763.343 113.66 763.366 113.581 763.374 113.499C763.382 113.417 763.373 113.335 763.348 113.256C763.324 113.178 763.284 113.105 763.232 113.041C763.174 112.97 763.1 112.912 763.017 112.872C762.934 112.832 762.843 112.811 762.75 112.81Z" fill="#7E8299"/>
<rect x="711" y="102" width="61" height="26" rx="6" stroke="#A1A5B7"/>
<defs>
<filter id="filter0_d_1_699" x="359.001" y="263.5" width="15.9993" height="128" filterUnits="userSpaceOnUse" color-interpolation-filters="sRGB">
<feFlood flood-opacity="0" result="BackgroundImageFix"/>
<feColorMatrix in="SourceAlpha" type="matrix" values="0 0 0 0 0 0 0 0 0 0 0 0 0 0 0 0 0 0 127 0" result="hardAlpha"/>
<feOffset/>
<feGaussianBlur stdDeviation="2"/>
<feComposite in2="hardAlpha" operator="out"/>
<feColorMatrix type="matrix" values="0 0 0 0 0.937255 0 0 0 0 0.94902 0 0 0 0 0.960784 0 0 0 0.25 0"/>
<feBlend mode="normal" in2="BackgroundImageFix" result="effect1_dropShadow_1_699"/>
<feBlend mode="normal" in="SourceGraphic" in2="effect1_dropShadow_1_699" result="shape"/>
</filter>
<filter id="filter1_d_1_699" x="343.001" y="263.5" width="15.9993" height="128" filterUnits="userSpaceOnUse" color-interpolation-filters="sRGB">
<feFlood flood-opacity="0" result="BackgroundImageFix"/>
<feColorMatrix in="SourceAlpha" type="matrix" values="0 0 0 0 0 0 0 0 0 0 0 0 0 0 0 0 0 0 127 0" result="hardAlpha"/>
<feOffset/>
<feGaussianBlur stdDeviation="2"/>
<feComposite in2="hardAlpha" operator="out"/>
<feColorMatrix type="matrix" values="0 0 0 0 0 0 0 0 0 0.639216 0 0 0 0 1 0 0 0 0.25 0"/>
<feBlend mode="normal" in2="BackgroundImageFix" result="effect1_dropShadow_1_699"/>
<feBlend mode="normal" in="SourceGraphic" in2="effect1_dropShadow_1_699" result="shape"/>
</filter>
<filter id="filter2_d_1_699" x="346.5" y="207.5" width="125" height="88" filterUnits="userSpaceOnUse" color-interpolation-filters="sRGB">
<feFlood flood-opacity="0" result="BackgroundImageFix"/>
<feColorMatrix in="SourceAlpha" type="matrix" values="0 0 0 0 0 0 0 0 0 0 0 0 0 0 0 0 0 0 127 0" result="hardAlpha"/>
<feOffset dy="2"/>
<feGaussianBlur stdDeviation="6"/>
<feComposite in2="hardAlpha" operator="out"/>
<feColorMatrix type="matrix" values="0 0 0 0 0 0 0 0 0 0 0 0 0 0 0 0 0 0 0.25 0"/>
<feBlend mode="normal" in2="BackgroundImageFix" result="effect1_dropShadow_1_699"/>
<feBlend mode="normal" in="SourceGraphic" in2="effect1_dropShadow_1_699" result="shape"/>
</filter>
</defs>
</svg>
