<svg width="16" height="8" viewBox="0 0 16 8" fill="none" xmlns="http://www.w3.org/2000/svg">
<path d="M14.0008 0.496296C13.7671 0.49584 13.5407 0.577215 13.3608 0.726296L8.0008 5.2063L2.6308 0.886297C2.52851 0.803231 2.41081 0.741199 2.28447 0.703767C2.15813 0.666336 2.02564 0.654242 1.89461 0.668181C1.76359 0.68212 1.6366 0.721817 1.52097 0.784991C1.40533 0.848165 1.30332 0.93357 1.2208 1.0363C1.13773 1.13858 1.0757 1.25628 1.03827 1.38262C1.00084 1.50896 0.988742 1.64145 1.00268 1.77248C1.01662 1.90351 1.05632 2.03049 1.11949 2.14613C1.18267 2.26176 1.26807 2.36377 1.3708 2.4463L7.3708 7.2763C7.54973 7.42338 7.77417 7.50378 8.0058 7.50378C8.23742 7.50378 8.46186 7.42338 8.6408 7.2763L14.6408 2.2763C14.7421 2.19235 14.8258 2.08925 14.8871 1.9729C14.9485 1.85655 14.9863 1.72924 14.9983 1.59827C15.0104 1.46729 14.9965 1.33522 14.9575 1.20962C14.9184 1.08401 14.855 0.967345 14.7708 0.866296C14.6777 0.751583 14.5604 0.658909 14.4273 0.594934C14.2942 0.530959 14.1485 0.497273 14.0008 0.496296Z" fill="#7E8299"/>
</svg>
