<svg width="50" height="50" viewBox="0 0 50 50" fill="none" xmlns="http://www.w3.org/2000/svg">
<circle cx="25" cy="25" r="25" fill="#EAECF3"/>
<path d="M15.76 18.04C17.2267 18.04 18.5133 18.3267 19.62 18.9C20.74 19.4733 21.6 20.2933 22.2 21.36C22.8133 22.4133 23.12 23.64 23.12 25.04C23.12 26.44 22.8133 27.6667 22.2 28.72C21.6 29.76 20.74 30.5667 19.62 31.14C18.5133 31.7133 17.2267 32 15.76 32H10.88V18.04H15.76ZM15.66 29.62C17.1267 29.62 18.26 29.22 19.06 28.42C19.86 27.62 20.26 26.4933 20.26 25.04C20.26 23.5867 19.86 22.4533 19.06 21.64C18.26 20.8133 17.1267 20.4 15.66 20.4H13.68V29.62H15.66ZM24.9359 25C24.9359 23.6267 25.2426 22.4 25.8559 21.32C26.4826 20.2267 27.3293 19.38 28.3959 18.78C29.4759 18.1667 30.6826 17.86 32.0159 17.86C33.5759 17.86 34.9426 18.26 36.1159 19.06C37.2893 19.86 38.1093 20.9667 38.5759 22.38H35.3559C35.0359 21.7133 34.5826 21.2133 33.9959 20.88C33.4226 20.5467 32.7559 20.38 31.9959 20.38C31.1826 20.38 30.4559 20.5733 29.8159 20.96C29.1893 21.3333 28.6959 21.8667 28.3359 22.56C27.9893 23.2533 27.8159 24.0667 27.8159 25C27.8159 25.92 27.9893 26.7333 28.3359 27.44C28.6959 28.1333 29.1893 28.6733 29.8159 29.06C30.4559 29.4333 31.1826 29.62 31.9959 29.62C32.7559 29.62 33.4226 29.4533 33.9959 29.12C34.5826 28.7733 35.0359 28.2667 35.3559 27.6H38.5759C38.1093 29.0267 37.2893 30.14 36.1159 30.94C34.9559 31.7267 33.5893 32.12 32.0159 32.12C30.6826 32.12 29.4759 31.82 28.3959 31.22C27.3293 30.6067 26.4826 29.76 25.8559 28.68C25.2426 27.6 24.9359 26.3733 24.9359 25Z" fill="#5E6278"/>
</svg>
