<svg width="18" height="19" viewBox="0 0 18 19" fill="none" xmlns="http://www.w3.org/2000/svg">
<path opacity="0.7" d="M11.2929 13.7071C10.9024 13.3166 10.9024 12.6834 11.2929 12.2929C11.6834 11.9024 12.3166 11.9024 12.7071 12.2929L16.7071 16.2929C17.0977 16.6834 17.0977 17.3166 16.7071 17.7071C16.3166 18.0976 15.6834 18.0976 15.2929 17.7071L11.2929 13.7071Z" fill="#7E8299"/>
<path fill-rule="evenodd" clip-rule="evenodd" d="M1 7.99999C1 11.866 4.13402 15 8.00003 15C11.866 15 15.0001 11.866 15.0001 7.99999C15.0001 4.134 11.866 1 8.00003 1C4.13402 1 1 4.134 1 7.99999ZM13 8C13 10.7614 10.7614 13 7.99999 13C5.23856 13 2.99997 10.7614 2.99997 8C2.99997 5.23858 5.23856 3.00001 7.99999 3.00001C10.7614 3.00001 13 5.23858 13 8Z" fill="#7E8299"/>
</svg>
